<?xml version="1.0" encoding="UTF-8" standalone="no"?>
<svg
   xmlns:dc="http://purl.org/dc/elements/1.1/"
   xmlns:cc="http://creativecommons.org/ns#"
   xmlns:rdf="http://www.w3.org/1999/02/22-rdf-syntax-ns#"
   xmlns:svg="http://www.w3.org/2000/svg"
   xmlns="http://www.w3.org/2000/svg"
   xmlns:sodipodi="http://sodipodi.sourceforge.net/DTD/sodipodi-0.dtd"
   xmlns:inkscape="http://www.inkscape.org/namespaces/inkscape"
   width="210mm"
   height="297mm"
   viewBox="0 0 210 297"
   version="1.1"
   id="svg4772"
   inkscape:version="1.0.1 (3bc2e813f5, 2020-09-07, custom)"
   sodipodi:docname="black.svg"
   inkscape:export-filename="/home/afloarea/Repositories/jackgammon/jimmy/assets/black.png"
   inkscape:export-xdpi="29.452393"
   inkscape:export-ydpi="29.452393">
  <defs
     id="defs4766" />
  <sodipodi:namedview
     id="base"
     pagecolor="#ffffff"
     bordercolor="#666666"
     borderopacity="1.0"
     inkscape:pageopacity="0.0"
     inkscape:pageshadow="2"
     inkscape:zoom="1.979899"
     inkscape:cx="365.34957"
     inkscape:cy="575.54617"
     inkscape:document-units="mm"
     inkscape:current-layer="layer1"
     inkscape:document-rotation="0"
     showgrid="false"
     inkscape:window-width="1920"
     inkscape:window-height="1006"
     inkscape:window-x="0"
     inkscape:window-y="0"
     inkscape:window-maximized="1" />
  <metadata
     id="metadata4769">
    <rdf:RDF>
      <cc:Work
         rdf:about="">
        <dc:format>image/svg+xml</dc:format>
        <dc:type
           rdf:resource="http://purl.org/dc/dcmitype/StillImage" />
        <dc:title />
      </cc:Work>
    </rdf:RDF>
  </metadata>
  <g
     inkscape:label="Layer 1"
     inkscape:groupmode="layer"
     id="layer1">
    <circle
       style="fill:#800015;stroke:#000000;stroke-width:1.946;fill-opacity:1;stroke-opacity:1"
       id="path4774"
       cx="102.07799"
       cy="149.32802"
       r="24.899263" />
    <path
       sodipodi:type="spiral"
       style="opacity:1;mix-blend-mode:normal;fill:none;fill-opacity:1;fill-rule:evenodd;stroke:#000000;stroke-width:1.565;stroke-miterlimit:4;stroke-dasharray:none;stroke-opacity:1"
       id="path4778"
       sodipodi:cx="103.05492"
       sodipodi:cy="151.10791"
       sodipodi:expansion="1"
       sodipodi:revolution="3"
       sodipodi:radius="26.805122"
       sodipodi:argument="-20.943951"
       sodipodi:t0="0"
       d="m 103.05492,151.10791 c -0.67199,-1.16391 1.23739,-1.48005 1.93449,-1.11688 1.8891,0.98417 1.52262,3.64345 0.29927,4.98587 -2.1883,2.40126 -6.018786,1.72488 -8.037244,-0.51835 -2.962169,-3.29204 -1.942476,-8.42971 1.335963,-11.08861 4.369641,-3.54391 10.853701,-2.16716 14.139981,2.15357 4.13545,5.4372 2.39561,13.28405 -2.97119,17.19136 -6.49991,4.73228 -15.717976,2.62628 -20.242728,-3.7888 -5.332263,-7.55995 -2.858331,-18.15416 4.606419,-23.29411 8.618349,-5.93427 20.591829,-3.09131 26.345479,5.42404 6.53766,9.67568 3.32495,23.03055 -6.24165,29.39685 -10.73227,7.14202 -25.470045,3.55905 -32.448222,-7.05927 -7.7471,-11.78834 -3.793503,-27.91011 7.876876,-35.49959" />
  </g>
</svg>
