<?xml version="1.0" encoding="UTF-8" standalone="no"?>
<svg
   xmlns:dc="http://purl.org/dc/elements/1.1/"
   xmlns:cc="http://creativecommons.org/ns#"
   xmlns:rdf="http://www.w3.org/1999/02/22-rdf-syntax-ns#"
   xmlns:svg="http://www.w3.org/2000/svg"
   xmlns="http://www.w3.org/2000/svg"
   xmlns:sodipodi="http://sodipodi.sourceforge.net/DTD/sodipodi-0.dtd"
   xmlns:inkscape="http://www.inkscape.org/namespaces/inkscape"
   width="210mm"
   height="297mm"
   viewBox="0 0 210 297"
   version="1.1"
   id="svg4772"
   sodipodi:docname="white.svg"
   inkscape:version="1.0.1 (3bc2e813f5, 2020-09-07, custom)"
   inkscape:export-filename="/home/afloarea/Repositories/jackgammon/jimmy/assets/white.png"
   inkscape:export-xdpi="36.259998"
   inkscape:export-ydpi="36.259998">
  <defs
     id="defs4766" />
  <sodipodi:namedview
     id="base"
     pagecolor="#ffffff"
     bordercolor="#666666"
     borderopacity="1.0"
     inkscape:pageopacity="0.0"
     inkscape:pageshadow="2"
     inkscape:zoom="1.979899"
     inkscape:cx="372.85212"
     inkscape:cy="626.71176"
     inkscape:document-units="mm"
     inkscape:current-layer="layer1"
     inkscape:document-rotation="0"
     showgrid="false"
     inkscape:window-width="1920"
     inkscape:window-height="1006"
     inkscape:window-x="0"
     inkscape:window-y="0"
     inkscape:window-maximized="1" />
  <metadata
     id="metadata4769">
    <rdf:RDF>
      <cc:Work
         rdf:about="">
        <dc:format>image/svg+xml</dc:format>
        <dc:type
           rdf:resource="http://purl.org/dc/dcmitype/StillImage" />
        <dc:title />
      </cc:Work>
    </rdf:RDF>
  </metadata>
  <g
     inkscape:label="Below"
     inkscape:groupmode="layer"
     id="layer1"
     style="mix-blend-mode:normal">
    <circle
       style="fill:#2effff;stroke:#000000;stroke-width:1;fill-opacity:1"
       id="path831"
       cx="118.45681"
       cy="166.83325"
       r="21.809324" />
    <path
       sodipodi:type="spiral"
       style="fill:none;fill-rule:evenodd;stroke:#000000;stroke-width:1.111;stroke-miterlimit:4;stroke-dasharray:none"
       id="path837"
       sodipodi:cx="119.50069"
       sodipodi:cy="167.64685"
       sodipodi:expansion="1"
       sodipodi:revolution="3"
       sodipodi:radius="22.599255"
       sodipodi:argument="-21.729349"
       sodipodi:t0="0"
       d="m 119.50069,167.64685 c -1.09448,-0.29326 -0.14467,-1.62003 0.48742,-1.8191 1.71293,-0.53948 3.0798,1.26435 3.15078,2.79395 0.12696,2.73611 -2.55984,4.61645 -5.10048,4.48245 -3.7285,-0.19665 -6.18346,-3.86741 -5.81412,-7.40701 0.49226,-4.71772 5.17855,-7.76248 9.71353,-7.14579 5.70681,0.77604 9.34755,6.49122 8.47747,12.02006 -1.05379,6.69616 -7.80472,10.93607 -14.32659,9.80914 -7.68579,-1.32805 -12.52676,-9.11872 -11.14082,-16.63311 1.60014,-8.67566 10.43307,-14.1189 18.93965,-12.47249 9.66571,1.87075 15.71204,11.74765 13.80416,21.24617 -2.14036,10.6559 -13.06241,17.30593 -23.5527,15.13583 -11.6462,-2.40921 -18.900361,-14.3773 -16.467507,-25.85922" />
  </g>
</svg>
